<svg width="773" height="465" viewBox="0 0 773 465" fill="none" xmlns="http://www.w3.org/2000/svg">
<path d="M219 0H492L460.5 106H243L219 0Z" fill="#FFD748"/>
<path d="M156 126L219 0L243 105.5L186.5 256L87 465L32 359L0.5 316L71.5 253.5L114 198L156 126Z" fill="#E3BC2F"/>
<path d="M564.5 151.5L533.5 90L492 0L460.5 106L523.5 256L670 438L730 337L773 292L643.5 254.5L603.5 209.5L564.5 151.5Z" fill="#E3BC2F"/>
<path d="M243 105.5L460.5 106L523.5 256L670 438L550 465H87L186.5 256L243 105.5Z" fill="#E9C403"/>
</svg>
