<svg width="398" height="739" viewBox="0 0 398 739" fill="none" xmlns="http://www.w3.org/2000/svg">
<path d="M83 435.5H168L164 581L57 568L83 435.5Z" fill="#7B4A00"/>
<path d="M57 568L164 581L173 739L31 714.5L57 568Z" fill="#7B4A00"/>
<path d="M114.5 313L176.5 329L168 436H83.5L114.5 313Z" fill="#693F00"/>
<path d="M154.5 196L210.5 207.5L177 329L114.5 313L154.5 196Z" fill="#623B01"/>
<path d="M151 151L186 160L181.22 201.501L154.5 196.5L151 151Z" fill="#563400"/>
<path d="M230.5 158L186 160L181 201.5L210.5 207.5L230.5 158Z" fill="#563400"/>
<path d="M191 172L219 143L273 125L299 138L344 159L374 199V296L319 226L263.5 190.5L191 172Z" fill="#70833B"/>
<path d="M176.946 169.482L182.247 129.521L203 112L235 82.9999L297 70.9999L341 83L398 160L311.996 136.899L299 138L246.26 141.304L176.946 169.482Z" fill="#70833B"/>
<path d="M183 167L155 138L93.5 125L30 154L0 194.5V291L55 221L110.5 185.5L183 167Z" fill="#70833B"/>
<path d="M203 173.5L214.036 155.065L203 112L198 94L136 42L86 33L-3.27514e-05 76L87.2536 94.2863L143.914 127.902L169 166L174 169.5L203 173.5Z" fill="#70833B"/>
<path d="M93.5 125L150 137L92 144L46 162.5L8.5 194.5L0 291V194.5L30 154L93.5 125Z" fill="#546429"/>
<path d="M86 33L136 42L198 94L203 112L190 97L124.5 50L83.5 45.5L0 76L86 33Z" fill="#546429"/>
<path d="M235 83L297 71L341 83L398 160L339 91L299.5 79.5L243 92.5L220 104L206.5 113L198.5 126.5L203 112L235 83Z" fill="#55632E"/>
<path d="M299 138L344 159L374 199V295.76L370 201.5L341 163.5L299 145.5L252.5 144.5L206.5 143.5L254.5 138H299Z" fill="#505B2E"/>
</svg>
