<svg width="400" height="700" viewBox="0 0 400 700" fill="none" xmlns="http://www.w3.org/2000/svg">
<path d="M311.5 429.5H226.5L230 576L338 562L311.5 429.5Z" fill="#7B4A00"/>
<path d="M338 562L230 576V699.5L377.5 684.5L338 562Z" fill="#7B4A00"/>
<path d="M280 307L218 323L226.5 430H311L280 307Z" fill="#693F00"/>
<path d="M240 190L184 201.5L217.5 323L280 307L240 190Z" fill="#623B01"/>
<path d="M244.779 150.222L209.779 159.222L214.559 200.724L241.279 195.722L244.779 150.222Z" fill="#563400"/>
<path d="M165.279 157.222L209.779 159.222L214.779 200.722L185.279 206.722L165.279 157.222Z" fill="#563400"/>
<path d="M208 172L179.82 143.315L126 125L99 138L55 159L25 199V296L80 226L135 191L208 172Z" fill="#70833B"/>
<path d="M221.874 169.797L216.572 129.836L196 112L163 83L101 71L58.0001 83L1.00015 161L86.8244 137.214L152.559 141.619L221.874 169.797Z" fill="#70833B"/>
<path d="M215.82 167.315L249 137L305 125L369 154L399 195V291L343.82 221.315L288.32 185.815L215.82 167.315Z" fill="#70833B"/>
<path d="M195.82 173.815L184.784 155.38L196 112L201 94L262 42L313 33L399 77L311.566 94.6011L254.906 128.217L249 137L229.82 166.315L224.82 169.815L195.82 173.815Z" fill="#70833B"/>
<path d="M55 159L99 138L119 131.5L151 124.5L169 124L181.5 124.5L195 126.5H162L145 129.5L116 138L92 148L61 163.5L32.5 201L25 296V199L55 159Z" fill="#55632E"/>
<path d="M58 83L101 71L163 83L196 112L197.5 122.5L191 112L181.5 104L163 88.5L99 76.5L65.5 86.5L1 161L58 83Z" fill="#55632E"/>
<path d="M201 94L262 42L313 33L399 77L314 39L267.5 46L205.5 97L196 112L201 94Z" fill="#55632E"/>
<path d="M361 161L301.5 130.5L244.5 141.5L214 147.5L229 141.5L249 137L305 125L369 154L399 195V291L391.5 197L361 161Z" fill="#55632E"/>
</svg>
