<svg width="116" height="97" viewBox="0 0 116 97" fill="none" xmlns="http://www.w3.org/2000/svg">
<path d="M72.8787 38.8793L76.8366 48.3498L86.4769 51.8744L78.693 58.5652L78.32 68.8227L69.5512 63.4874L59.6804 66.3024L62.045 56.3141L56.3175 47.7963L66.5476 46.9586L72.8787 38.8793Z" fill="#FAFF00"/>
<path d="M43.9478 69.1643L48.1262 77.0681L57.0663 77.0037L50.8406 83.4201L53.6645 91.9027L45.6383 87.9645L38.4435 93.2714L39.7087 84.4211L32.4382 79.2183L41.2463 77.6867L43.9478 69.1643Z" fill="#FAFF00"/>
<path d="M21.5751 21.5415L29.3075 27.1694L38.739 25.5843L35.7759 34.6774L40.198 43.1574L30.6343 43.1493L23.9358 49.9753L20.9882 40.8772L12.4263 36.616L20.1682 31.0011L21.5751 21.5415Z" fill="#FAFF00"/>
<path d="M58.9662 0.999792L63.3649 9.49185L72.5094 12.2923L65.7923 19.1L65.9547 28.6624L57.4045 24.3777L48.3603 27.487L49.7932 18.0313L44.0412 10.3906L53.4769 8.83132L58.9662 0.999792Z" fill="#FAFF00"/>
<path d="M100.056 5.91477L102.276 15.9361L111.141 21.1102L102.297 26.3187L100.115 36.3485L92.4283 29.5462L82.2153 30.5709L86.3093 21.1583L82.1788 11.7618L92.3958 12.7468L100.056 5.91477Z" fill="#FAFF00"/>
<path d="M12.7951 55.3052L19.0465 61.8912L27.9388 60.052L23.6069 68.0326L28.104 75.9213L19.1754 74.2676L13.0624 80.9823L11.8761 71.9796L3.60103 68.2409L11.7965 64.3306L12.7951 55.3052Z" fill="#FAFF00"/>
<ellipse cx="22.3913" cy="35.4622" rx="2" ry="4" transform="rotate(-30.9685 22.3913 35.4622)" fill="black"/>
<ellipse cx="66.1851" cy="52.8026" rx="2.29417" ry="3.54857" transform="rotate(-3.28389 66.1851 52.8026)" fill="black"/>
<ellipse cx="75.46" cy="53.8988" rx="2.29417" ry="3.54857" transform="rotate(19.8328 75.46 53.8988)" fill="black"/>
<ellipse cx="12.8256" cy="68.4026" rx="1.89965" ry="2.91226" transform="rotate(-21.2393 12.8256 68.4026)" fill="black"/>
<ellipse cx="42.3429" cy="81.1797" rx="1.89965" ry="2.91226" transform="rotate(-9.24555 42.3429 81.1797)" fill="black"/>
<ellipse rx="1.89965" ry="2.91226" transform="matrix(-0.998389 -0.0567389 -0.0567389 0.998389 48.0617 81.0154)" fill="black"/>
<ellipse cx="20.3107" cy="66.1619" rx="1.89965" ry="2.91226" transform="rotate(-8.5329 20.3107 66.1619)" fill="black"/>
<ellipse cx="99.2201" cy="21.6902" rx="2.5989" ry="3.9133" transform="rotate(30.3493 99.2201 21.6902)" fill="black"/>
<ellipse cx="91.4498" cy="18.7498" rx="2.36141" ry="3.9133" transform="rotate(14.5408 91.4498 18.7498)" fill="black"/>
<ellipse cx="30.3912" cy="31.4623" rx="2" ry="4" transform="rotate(-22.75 30.3912 31.4623)" fill="black"/>
<ellipse cx="53.5653" cy="15.1882" rx="2.20136" ry="4" transform="rotate(-5.35937 53.5653 15.1882)" fill="black"/>
<ellipse cx="61.8391" cy="15.3201" rx="2.16527" ry="4" transform="rotate(10.195 61.8391 15.3201)" fill="black"/>
</svg>
