<svg width="109" height="95" viewBox="0 0 109 95" fill="none" xmlns="http://www.w3.org/2000/svg">
<path d="M66.7582 41.0233L70.1828 50.6995L79.6119 54.7552L71.4676 61.0023L70.5241 71.2232L62.066 65.408L52.0538 67.6691L54.9707 57.828L49.7263 49.0045L59.9872 48.7376L66.7582 41.0233Z" fill="#FAFF00"/>
<path d="M14.5751 23.5415L22.3075 29.1694L31.739 27.5843L28.7759 36.6774L33.198 45.1574L23.6343 45.1493L16.9358 51.9753L13.9882 42.8772L5.42626 38.616L13.1682 33.0011L14.5751 23.5415Z" fill="#FAFF00"/>
<path d="M56.9662 0.999792L61.3649 9.49185L70.5094 12.2923L63.7923 19.1L63.9547 28.6624L55.4045 24.3777L46.3603 27.487L47.7932 18.0313L42.0412 10.3906L51.4769 8.83132L56.9662 0.999792Z" fill="#FAFF00"/>
<path d="M93.056 7.91477L95.2764 17.9361L104.141 23.1102L95.2966 28.3187L93.115 38.3485L85.4283 31.5462L75.2153 32.5709L79.3093 23.1583L75.1788 13.7618L85.3958 14.7468L93.056 7.91477Z" fill="#FAFF00"/>
<path d="M20.7951 64.3052L27.0465 70.8912L35.9388 69.052L31.6069 77.0326L36.104 84.9213L27.1754 83.2676L21.0624 89.9823L19.8761 80.9796L11.601 77.2409L19.7965 73.3306L20.7951 64.3052Z" fill="#FAFF00"/>
<ellipse cx="15.3912" cy="37.4623" rx="2" ry="4" transform="rotate(-22.75 15.3912 37.4623)" fill="black"/>
<ellipse cx="59.2999" cy="54.5523" rx="2.29417" ry="3.54857" transform="rotate(-0.092662 59.2999 54.5523)" fill="black"/>
<ellipse cx="68.4994" cy="56.1632" rx="2.29417" ry="3.54857" transform="rotate(23.024 68.4994 56.1632)" fill="black"/>
<ellipse cx="20.8256" cy="77.4026" rx="1.89965" ry="2.91226" transform="rotate(-21.2393 20.8256 77.4026)" fill="black"/>
<ellipse cx="28.3107" cy="75.1619" rx="1.89965" ry="2.91226" transform="rotate(-8.5329 28.3107 75.1619)" fill="black"/>
<ellipse cx="92.2201" cy="23.6902" rx="2.5989" ry="3.9133" transform="rotate(30.3493 92.2201 23.6902)" fill="black"/>
<ellipse cx="84.4498" cy="20.7498" rx="2.36141" ry="3.9133" transform="rotate(14.5408 84.4498 20.7498)" fill="black"/>
<ellipse cx="23.3912" cy="33.4623" rx="2" ry="4" transform="rotate(-22.75 23.3912 33.4623)" fill="black"/>
<ellipse cx="51.5653" cy="15.1882" rx="2.20136" ry="4" transform="rotate(-5.35937 51.5653 15.1882)" fill="black"/>
<ellipse cx="59.8391" cy="15.3201" rx="2.16527" ry="4" transform="rotate(10.195 59.8391 15.3201)" fill="black"/>
</svg>
