<svg width="44" height="44" viewBox="0 0 44 44" fill="none" xmlns="http://www.w3.org/2000/svg">
<rect x="1" y="1" width="42" height="42" fill="#4D536E" stroke="#C6EBE0" stroke-width="2"/>
<path d="M31.4564 12.7507C29.6904 11.9404 27.7966 11.3434 25.8165 11.0014C25.7804 10.9948 25.7444 11.0113 25.7258 11.0443C25.4822 11.4775 25.2125 12.0426 25.0235 12.4868C22.8938 12.168 20.775 12.168 18.6889 12.4868C18.5 12.0328 18.2204 11.4775 17.9757 11.0443C17.9572 11.0124 17.9211 10.9959 17.8851 11.0014C15.9061 11.3423 14.0122 11.9393 12.2451 12.7507C12.2298 12.7573 12.2167 12.7683 12.208 12.7826C8.61581 18.1493 7.63177 23.384 8.11451 28.5538C8.11669 28.5791 8.13089 28.6033 8.15055 28.6187C10.5206 30.3592 12.8163 31.4158 15.0695 32.1162C15.1055 32.1272 15.1437 32.114 15.1667 32.0843C15.6996 31.3564 16.1748 30.589 16.5821 29.7819C16.6061 29.7347 16.5832 29.6786 16.5341 29.6599C15.7805 29.374 15.0629 29.0255 14.3726 28.6297C14.318 28.5978 14.3137 28.5197 14.3639 28.4823C14.5092 28.3735 14.6545 28.2602 14.7932 28.1459C14.8182 28.125 14.8532 28.1206 14.8827 28.1338C19.4174 30.2041 24.3267 30.2041 28.8079 28.1338C28.8374 28.1195 28.8724 28.1239 28.8985 28.1448C29.0373 28.2591 29.1825 28.3735 29.3289 28.4823C29.3791 28.5197 29.3758 28.5978 29.3212 28.6297C28.631 29.0332 27.9134 29.374 27.1587 29.6588C27.1096 29.6775 27.0877 29.7347 27.1118 29.7819C27.5279 30.5878 28.003 31.3553 28.5261 32.0832C28.548 32.114 28.5873 32.1272 28.6233 32.1162C30.8874 31.4158 33.1831 30.3592 35.5532 28.6187C35.5739 28.6033 35.587 28.5802 35.5892 28.5549C36.167 22.578 34.6215 17.3862 31.4924 12.7837C31.4848 12.7683 31.4717 12.7573 31.4564 12.7507ZM17.2593 25.4059C15.894 25.4059 14.7691 24.1525 14.7691 22.6132C14.7691 21.0739 15.8722 19.8205 17.2593 19.8205C18.6572 19.8205 19.7713 21.0849 19.7494 22.6132C19.7494 24.1525 18.6463 25.4059 17.2593 25.4059ZM26.4663 25.4059C25.1011 25.4059 23.9761 24.1525 23.9761 22.6132C23.9761 21.0739 25.0792 19.8205 26.4663 19.8205C27.8643 19.8205 28.9783 21.0849 28.9565 22.6132C28.9565 24.1525 27.8643 25.4059 26.4663 25.4059Z" fill="#C6EBE0"/>
</svg>
