<svg width="48" height="48" viewBox="0 0 48 48" fill="none" xmlns="http://www.w3.org/2000/svg">
<rect x="1" y="1" width="46" height="46" fill="#4D536E" stroke="#C6EBE0" stroke-width="2"/>
<path d="M34.3161 13.9099C32.3895 13.0259 30.3235 12.3746 28.1634 12.0016C28.1241 11.9944 28.0848 12.0124 28.0645 12.0483C27.7988 12.5209 27.5045 13.1374 27.2984 13.622C24.9751 13.2742 22.6637 13.2742 20.3879 13.622C20.1818 13.1267 19.8768 12.5209 19.6099 12.0483C19.5896 12.0136 19.5503 11.9956 19.511 12.0016C17.3521 12.3734 15.2861 13.0247 13.3583 13.9099C13.3416 13.9171 13.3273 13.9291 13.3178 13.9447C9.39909 19.7992 8.32558 25.5098 8.85221 31.1496C8.85459 31.1772 8.87008 31.2036 8.89153 31.2204C11.477 33.1191 13.9815 34.2718 16.4394 35.0358C16.4788 35.0478 16.5204 35.0334 16.5455 35.001C17.1269 34.207 17.6452 33.3698 18.0896 32.4894C18.1158 32.4378 18.0908 32.3766 18.0372 32.3562C17.2151 32.0444 16.4323 31.6642 15.6793 31.2324C15.6197 31.1976 15.6149 31.1124 15.6697 31.0716C15.8282 30.9529 15.9867 30.8293 16.138 30.7046C16.1654 30.6818 16.2035 30.677 16.2357 30.6914C21.1826 32.95 26.5383 32.95 31.4268 30.6914C31.459 30.6758 31.4971 30.6806 31.5257 30.7034C31.6771 30.8281 31.8355 30.9529 31.9952 31.0716C32.05 31.1124 32.0464 31.1976 31.9868 31.2324C31.2338 31.6725 30.451 32.0444 29.6277 32.355C29.5741 32.3754 29.5503 32.4378 29.5765 32.4894C30.0304 33.3686 30.5487 34.2058 31.1194 34.9998C31.1433 35.0334 31.1861 35.0478 31.2255 35.0358C33.6954 34.2718 36.1998 33.1191 38.7853 31.2204C38.8079 31.2036 38.8222 31.1784 38.8246 31.1508C39.4549 24.6306 37.769 18.9668 34.3554 13.9459C34.3471 13.9291 34.3328 13.9171 34.3161 13.9099ZM18.8283 27.7156C17.339 27.7156 16.1118 26.3482 16.1118 24.669C16.1118 22.9897 17.3152 21.6224 18.8283 21.6224C20.3534 21.6224 21.5687 23.0017 21.5449 24.669C21.5449 26.3482 20.3415 27.7156 18.8283 27.7156ZM28.8723 27.7156C27.383 27.7156 26.1558 26.3482 26.1558 24.669C26.1558 22.9897 27.3592 21.6224 28.8723 21.6224C30.3974 21.6224 31.6127 23.0017 31.5889 24.669C31.5889 26.3482 30.3974 27.7156 28.8723 27.7156Z" fill="#C6EBE0"/>
</svg>
