<svg width="44" height="44" viewBox="0 0 44 44" fill="none" xmlns="http://www.w3.org/2000/svg">
<rect x="1" y="1" width="42" height="42" fill="#4D536E" stroke="#C6EBE0" stroke-width="2"/>
<path d="M11.8671 22.672L11.9535 22.5364L17.1563 14.3973C17.2323 14.2781 17.4111 14.2904 17.4686 14.4199C18.3378 16.3679 19.0878 18.7905 18.7364 20.2987C18.5864 20.9192 18.1755 21.7597 17.7131 22.5364C17.6535 22.6494 17.5878 22.7604 17.5179 22.8672C17.485 22.9165 17.4295 22.9453 17.3699 22.9453H12.0192C11.8754 22.9453 11.7911 22.7892 11.8671 22.672Z" fill="#C6EBE0"/>
<path d="M35.0577 24.1844V25.4728C35.0577 25.5467 35.0125 25.6125 34.9468 25.6412C34.544 25.8139 33.1652 26.4468 32.592 27.244C31.1289 29.2803 30.0111 32.192 27.5124 32.192H17.0884C13.3938 32.192 10.4 29.1879 10.4 25.481V25.3618C10.4 25.2632 10.4801 25.183 10.5788 25.183H16.3897C16.5048 25.183 16.5891 25.2899 16.5788 25.4029C16.5377 25.781 16.6076 26.1673 16.7863 26.5187C17.1316 27.2193 17.8466 27.657 18.6192 27.657H21.496V25.4111H18.6521C18.5062 25.4111 18.4199 25.2426 18.5042 25.1234C18.535 25.0762 18.5699 25.0268 18.6069 24.9714C18.8761 24.5892 19.2603 23.9953 19.6425 23.3193C19.9035 22.8632 20.1562 22.3761 20.3596 21.8871C20.4008 21.7988 20.4336 21.7084 20.4665 21.62C20.522 21.4638 20.5795 21.3179 20.6206 21.172C20.6617 21.0488 20.6946 20.9193 20.7275 20.798C20.824 20.383 20.8652 19.9432 20.8652 19.4871C20.8652 19.3083 20.8569 19.1213 20.8405 18.9425C20.8323 18.7473 20.8076 18.5521 20.7829 18.3569C20.7665 18.1843 20.7357 18.0138 20.7028 17.835C20.6617 17.574 20.6042 17.3152 20.5384 17.0542L20.5158 16.9556C20.4665 16.7768 20.4254 16.6062 20.3679 16.4275C20.2056 15.8665 20.0185 15.3199 19.8213 14.8083C19.7494 14.6048 19.6672 14.4096 19.585 14.2144C19.4637 13.9206 19.3405 13.6535 19.2275 13.4007C19.1699 13.2856 19.1206 13.1808 19.0713 13.074C19.0158 12.9528 18.9583 12.8316 18.9008 12.7164C18.8596 12.6281 18.8124 12.5459 18.7795 12.4637L18.4281 11.8144C18.3788 11.726 18.461 11.6212 18.5576 11.648L20.7562 12.2439H20.7624C20.7665 12.2439 20.7706 12.2459 20.7706 12.2459L21.0604 12.326L21.3788 12.4164L21.496 12.4493V11.1425C21.496 10.5116 22.0015 10 22.6261 10C22.9384 10 23.222 10.1274 23.4254 10.3349C23.6288 10.5425 23.7563 10.826 23.7563 11.1425V13.0822L23.9905 13.148C24.009 13.1541 24.0275 13.1624 24.044 13.1747C24.1015 13.2178 24.1836 13.2816 24.2884 13.3596C24.3707 13.4254 24.459 13.5055 24.5659 13.5877C24.7775 13.7583 25.0302 13.9781 25.3076 14.2308C25.3816 14.2946 25.4536 14.3603 25.5193 14.4261C25.8768 14.7589 26.2775 15.1494 26.6597 15.5809C26.7666 15.7021 26.8714 15.8254 26.9782 15.9548C27.0851 16.0864 27.1981 16.2158 27.2967 16.3453C27.4262 16.5179 27.5659 16.6966 27.6871 16.8836C27.7447 16.972 27.8104 17.0624 27.8659 17.1508C28.022 17.3871 28.1597 17.6316 28.2912 17.8761C28.3467 17.9891 28.4043 18.1124 28.4536 18.2336C28.5995 18.5604 28.7145 18.8932 28.7885 19.2261C28.8111 19.298 28.8276 19.3761 28.8358 19.446V19.4624C28.8604 19.5611 28.8686 19.6659 28.8768 19.7727C28.9097 20.1138 28.8933 20.4549 28.8193 20.798C28.7885 20.944 28.7474 21.0816 28.6981 21.2275C28.6488 21.3672 28.5995 21.5131 28.5358 21.6508C28.4125 21.9364 28.2666 22.222 28.094 22.4892C28.0385 22.5878 27.9728 22.6926 27.907 22.7912C27.8351 22.896 27.7611 22.9947 27.6953 23.0912C27.6049 23.2145 27.5084 23.344 27.4097 23.459C27.3214 23.5803 27.2309 23.7015 27.1323 23.8084C26.9947 23.9707 26.8632 24.1248 26.7255 24.2728C26.6433 24.3693 26.5549 24.468 26.4645 24.5563C26.3761 24.6549 26.2857 24.7433 26.2036 24.8255C26.0659 24.9632 25.9508 25.07 25.8542 25.1584L25.6282 25.3659C25.5953 25.3947 25.5522 25.4111 25.507 25.4111H23.7563V27.657H25.959C26.4522 27.657 26.9207 27.4824 27.2988 27.1618C27.4282 27.0488 27.9933 26.5597 28.6611 25.8221C28.6837 25.7974 28.7125 25.7789 28.7453 25.7707L34.8296 24.0118C34.9427 23.9789 35.0577 24.0652 35.0577 24.1844Z" fill="#C6EBE0"/>
</svg>
