<svg width="48" height="48" viewBox="0 0 48 48" fill="none" xmlns="http://www.w3.org/2000/svg">
<rect x="1" y="1" width="46" height="46" fill="#4D536E" stroke="#C6EBE0" stroke-width="2"/>
<path d="M12.9459 24.7331L13.0401 24.5852L18.7159 15.7062C18.7988 15.5761 18.9938 15.5896 19.0566 15.7308C20.0048 17.8559 20.823 20.4988 20.4396 22.1441C20.276 22.821 19.8277 23.7379 19.3233 24.5852C19.2583 24.7085 19.1866 24.8296 19.1104 24.9461C19.0745 24.9999 19.014 25.0313 18.949 25.0313H13.1118C12.9549 25.0313 12.863 24.8609 12.9459 24.7331Z" fill="#C6EBE0"/>
<path d="M38.2447 26.3831V27.7885C38.2447 27.8692 38.1954 27.941 38.1237 27.9724C37.6844 28.1607 36.1802 28.8511 35.5548 29.7208C33.9588 31.9422 32.7393 35.1186 30.0135 35.1186H18.6418C14.6114 35.1186 11.3454 31.8414 11.3454 27.7975V27.6675C11.3454 27.5599 11.4328 27.4725 11.5404 27.4725H17.8797C18.0052 27.4725 18.0971 27.589 18.0859 27.7123C18.0411 28.1248 18.1173 28.5462 18.3123 28.9295C18.6889 29.6939 19.469 30.1714 20.3119 30.1714H23.4501V27.7213H20.3477C20.1886 27.7213 20.0944 27.5375 20.1863 27.4075C20.2199 27.3559 20.258 27.3021 20.2984 27.2416C20.5921 26.8247 21.0112 26.1768 21.4282 25.4393C21.7128 24.9417 21.9886 24.4104 22.2105 23.8769C22.2553 23.7805 22.2912 23.6819 22.327 23.5855C22.3876 23.4152 22.4503 23.256 22.4952 23.0969C22.54 22.9624 22.5759 22.8211 22.6117 22.6889C22.7171 22.2361 22.7619 21.7564 22.7619 21.2587C22.7619 21.0637 22.753 20.8597 22.735 20.6647C22.7261 20.4517 22.6992 20.2388 22.6722 20.0258C22.6543 19.8375 22.6207 19.6515 22.5848 19.4565C22.54 19.1718 22.4772 18.8893 22.4055 18.6046L22.3809 18.4971C22.327 18.3021 22.2822 18.116 22.2194 17.921C22.0424 17.309 21.8384 16.7127 21.6232 16.1546C21.5447 15.9326 21.455 15.7197 21.3654 15.5068C21.2331 15.1862 21.0986 14.8948 20.9754 14.619C20.9126 14.4935 20.8588 14.3792 20.805 14.2626C20.7445 14.1304 20.6817 13.9981 20.619 13.8726C20.5741 13.7762 20.5225 13.6865 20.4867 13.5969L20.1034 12.8885C20.0496 12.7921 20.1393 12.6778 20.2446 12.7069L22.6431 13.357H22.6498C22.6543 13.357 22.6588 13.3593 22.6588 13.3593L22.9749 13.4467L23.3223 13.5453L23.4501 13.5812V12.1555C23.4501 11.4673 24.0016 10.9092 24.683 10.9092C25.0237 10.9092 25.333 11.0481 25.555 11.2746C25.7769 11.501 25.9159 11.8103 25.9159 12.1555V14.2716L26.1714 14.3433C26.1916 14.3501 26.2118 14.359 26.2297 14.3725C26.2925 14.4195 26.3821 14.4891 26.4964 14.5742C26.5861 14.646 26.6825 14.7334 26.7991 14.823C27.03 15.0091 27.3057 15.249 27.6083 15.5246C27.689 15.5942 27.7675 15.6659 27.8392 15.7376C28.2292 16.1007 28.6663 16.5267 29.0833 16.9974C29.1999 17.1296 29.3142 17.2641 29.4307 17.4054C29.5473 17.5488 29.6706 17.6901 29.7782 17.8313C29.9194 18.0196 30.0718 18.2146 30.2041 18.4186C30.2669 18.515 30.3386 18.6136 30.3991 18.71C30.5695 18.9678 30.7197 19.2346 30.8631 19.5013C30.9236 19.6246 30.9864 19.7591 31.0402 19.8913C31.1994 20.2477 31.3249 20.6109 31.4056 20.9741C31.4303 21.0525 31.4482 21.1377 31.4572 21.2139V21.2318C31.484 21.3394 31.493 21.4538 31.502 21.5703C31.5378 21.9424 31.5199 22.3145 31.4392 22.6889C31.4056 22.848 31.3608 22.9982 31.307 23.1574C31.2531 23.3098 31.1994 23.4689 31.1299 23.6191C30.9954 23.9307 30.8362 24.2423 30.6479 24.5337C30.5874 24.6413 30.5157 24.7556 30.4439 24.8632C30.3655 24.9775 30.2848 25.0852 30.213 25.1905C30.1144 25.325 30.0091 25.4662 29.9015 25.5917C29.8051 25.724 29.7064 25.8563 29.5988 25.9728C29.4487 26.1499 29.3052 26.3181 29.155 26.4795C29.0654 26.5848 28.969 26.6924 28.8703 26.7888C28.7739 26.8964 28.6753 26.9928 28.5857 27.0824C28.4354 27.2326 28.3099 27.3492 28.2046 27.4456L27.958 27.672C27.9221 27.7034 27.8751 27.7213 27.8257 27.7213H25.9159V30.1714H28.3189C28.8569 30.1714 29.368 29.9808 29.7804 29.6312C29.9217 29.5079 30.5381 28.9743 31.2666 28.1696C31.2913 28.1427 31.3227 28.1226 31.3585 28.1136L37.9959 26.1948C38.1192 26.1589 38.2447 26.253 38.2447 26.3831Z" fill="#C6EBE0"/>
</svg>
