<svg width="48" height="48" viewBox="0 0 48 48" fill="none" xmlns="http://www.w3.org/2000/svg">
<rect x="1" y="1" width="46" height="46" rx="12" fill="#000000" stroke="#C6EBE0" stroke-width="2"/>
<path d="M10.6006 27.6973L10.6947 27.4865L16.3705 14.8352C16.4534 14.6499 16.6485 14.6691 16.7112 14.8703C17.6594 17.8982 18.4776 21.6639 18.0943 24.0083C17.9306 24.9728 17.4823 26.2792 16.978 27.4865C16.9129 27.6622 16.8412 27.8347 16.765 28.0008C16.7291 28.0774 16.6686 28.1221 16.6036 28.1221H10.7664C10.6095 28.1221 10.5176 27.8794 10.6006 27.6973Z" fill="#C6EBE0"/>
<path d="M40.3438 28.0306V29.6683C40.3438 29.7623 40.2864 29.8459 40.2028 29.8824C39.6908 30.1019 37.9382 30.9064 37.2094 31.9198C35.3497 34.5082 33.9288 38.2094 30.7526 38.2094H17.502C12.8057 38.2094 9 34.3907 9 29.6787V29.5272C9 29.4018 9.10186 29.3 9.22728 29.3H16.6139C16.7602 29.3 16.8673 29.4358 16.8543 29.5794C16.802 30.0601 16.8908 30.5511 17.118 30.9978C17.5569 31.8884 18.4659 32.4448 19.448 32.4448H23.1047V29.5899H19.4897C19.3043 29.5899 19.1946 29.3757 19.3017 29.2242C19.3409 29.1641 19.3853 29.1014 19.4323 29.0309C19.7745 28.5451 20.2629 27.7902 20.7487 26.9309C21.0804 26.3511 21.4017 25.732 21.6603 25.1104C21.7126 24.998 21.7544 24.8831 21.7961 24.7708C21.8667 24.5723 21.9398 24.3868 21.992 24.2014C22.0442 24.0447 22.086 23.8801 22.1279 23.726C22.2506 23.1984 22.3029 22.6394 22.3029 22.0595C22.3029 21.8323 22.2924 21.5946 22.2715 21.3673C22.2611 21.1192 22.2297 20.8711 22.1984 20.6229C22.1775 20.4035 22.1383 20.1867 22.0965 19.9595C22.0442 19.6278 21.9711 19.2987 21.8875 18.9669L21.8588 18.8416C21.7961 18.6144 21.7439 18.3975 21.6707 18.1703C21.4644 17.4572 21.2267 16.7624 20.976 16.112C20.8846 15.8535 20.78 15.6053 20.6756 15.3572C20.5215 14.9837 20.3647 14.6441 20.2211 14.3228C20.148 14.1766 20.0853 14.0433 20.0226 13.9075C19.9521 13.7534 19.8789 13.5993 19.8058 13.453C19.7536 13.3407 19.6935 13.2362 19.6517 13.1318L19.205 12.3064C19.1423 12.1941 19.2469 12.0609 19.3696 12.0948L22.1644 12.8523H22.1723C22.1775 12.8523 22.1827 12.8549 22.1827 12.8549L22.551 12.9568L22.9559 13.0717L23.1047 13.1135V11.4523C23.1047 10.6504 23.7473 10 24.5414 10C24.9383 10 25.2988 10.1619 25.5574 10.4258C25.8159 10.6896 25.9779 11.05 25.9779 11.4523V13.918L26.2757 14.0015C26.2992 14.0094 26.3227 14.0198 26.3436 14.0355C26.4167 14.0903 26.5212 14.1714 26.6544 14.2706C26.7589 14.3542 26.8712 14.456 27.007 14.5605C27.2761 14.7773 27.5973 15.0568 27.95 15.3781C28.044 15.4591 28.1354 15.5426 28.219 15.6262C28.6735 16.0493 29.1828 16.5457 29.6687 17.0942C29.8045 17.2482 29.9377 17.405 30.0735 17.5695C30.2093 17.7367 30.353 17.9013 30.4784 18.0658C30.6429 18.2852 30.8205 18.5124 30.9746 18.7502C31.0478 18.8625 31.1313 18.9774 31.2019 19.0897C31.4004 19.3901 31.5754 19.7009 31.7426 20.0117C31.8131 20.1554 31.8862 20.3121 31.9489 20.4662C32.1344 20.8815 32.2806 21.3047 32.3747 21.7278C32.4034 21.8192 32.4243 21.9185 32.4348 22.0073V22.0282C32.4661 22.1536 32.4765 22.2868 32.487 22.4226C32.5288 22.8562 32.5079 23.2898 32.4139 23.726C32.3747 23.9115 32.3224 24.0864 32.2597 24.2719C32.197 24.4495 32.1344 24.6349 32.0534 24.81C31.8967 25.173 31.7112 25.5361 31.4918 25.8756C31.4213 26.001 31.3377 26.1342 31.2541 26.2596C31.1627 26.3928 31.0687 26.5182 30.9851 26.641C30.8702 26.7977 30.7474 26.9622 30.622 27.1085C30.5097 27.2626 30.3948 27.4167 30.2694 27.5525C30.0944 27.7589 29.9273 27.9548 29.7522 28.1429C29.6478 28.2656 29.5355 28.391 29.4205 28.5033C29.3082 28.6287 29.1933 28.741 29.0888 28.8455C28.9138 29.0205 28.7675 29.1563 28.6447 29.2686L28.3574 29.5324C28.3157 29.569 28.2608 29.5899 28.2033 29.5899H25.9779V32.4448H28.778C29.4048 32.4448 30.0004 32.2228 30.481 31.8153C30.6455 31.6717 31.3638 31.05 32.2127 30.1123C32.2414 30.081 32.278 30.0575 32.3198 30.047L40.0539 27.8111C40.1976 27.7693 40.3438 27.879 40.3438 28.0306Z" fill="#C6EBE0"/>
</svg>
