<svg width="48" height="48" viewBox="0 0 48 48" fill="none" xmlns="http://www.w3.org/2000/svg">
<rect x="1" y="1" width="46" height="46" fill="#4D536E" stroke="#C6EBE0" stroke-width="2"/>
<path d="M35.7399 17.8417C35.7575 18.0963 35.7575 18.3509 35.7575 18.6078C35.7575 26.4366 29.7977 35.4655 18.8998 35.4655V35.4608C15.6806 35.4655 12.5282 34.5434 9.81812 32.8047C10.2862 32.861 10.7567 32.8892 11.2283 32.8903C13.8962 32.8927 16.4878 31.9975 18.5866 30.3492C16.0513 30.3011 13.8281 28.6481 13.0515 26.2348C13.9396 26.4061 14.8547 26.3709 15.7263 26.1327C12.9623 25.5743 10.9737 23.1458 10.9737 20.3254C10.9737 20.2996 10.9737 20.2749 10.9737 20.2503C11.7973 20.709 12.7194 20.9636 13.6627 20.9918C11.0594 19.2519 10.2569 15.7886 11.829 13.0809C14.8371 16.7823 19.2753 19.0325 24.0396 19.2707C23.5621 17.2129 24.2144 15.0566 25.7537 13.61C28.14 11.3668 31.893 11.4818 34.1362 13.8669C35.4631 13.6053 36.7348 13.1184 37.8986 12.4286C37.4563 13.8001 36.5307 14.965 35.2941 15.7053C36.4685 15.5669 37.6159 15.2525 38.6964 14.7726C37.901 15.9646 36.8991 17.0029 35.7399 17.8417Z" fill="#C6EBE0"/>
</svg>
