<svg width="44" height="44" viewBox="0 0 44 44" fill="none" xmlns="http://www.w3.org/2000/svg">
<rect x="1" y="1" width="42" height="42" fill="#4D536E" stroke="#C6EBE0" stroke-width="2"/>
<path d="M32.7617 16.3549C32.7778 16.5882 32.7778 16.8216 32.7778 17.0571C32.7778 24.2335 27.3146 32.51 17.3249 32.51V32.5057C14.3739 32.51 11.4842 31.6647 9 30.0709C9.4291 30.1225 9.86035 30.1484 10.2927 30.1494C12.7382 30.1516 15.1138 29.331 17.0378 27.82C14.7138 27.7759 12.6758 26.2607 11.9639 24.0485C12.778 24.2055 13.6168 24.1733 14.4159 23.9549C11.8822 23.443 10.0593 21.2169 10.0593 18.6315C10.0593 18.6079 10.0593 18.5853 10.0593 18.5627C10.8143 18.9832 11.6595 19.2166 12.5242 19.2424C10.1378 17.6475 9.40221 14.4729 10.8433 11.9908C13.6007 15.3837 17.6691 17.4464 22.0364 17.6647C21.5987 15.7784 22.1966 13.8018 23.6076 12.4758C25.795 10.4195 29.2353 10.5249 31.2916 12.7113C32.5079 12.4715 33.6736 12.0252 34.7405 11.3928C34.335 12.65 33.4865 13.7179 32.353 14.3965C33.4295 14.2696 34.4813 13.9814 35.4718 13.5415C34.7426 14.6342 33.8242 15.5859 32.7617 16.3549Z" fill="#C6EBE0"/>
</svg>
