<svg width="48" height="48" viewBox="0 0 48 48" fill="none" xmlns="http://www.w3.org/2000/svg">
<rect x="1" y="1" width="46" height="46" rx="12" fill="#000000" stroke="#C6EBE0" stroke-width="2"/>
<path d="M37.0315 18.5896C37.0499 18.8768 37.0499 19.164 37.0499 19.4538C37.0499 28.285 30.8349 38.47 19.4705 38.47V38.4647C16.1134 38.47 12.8261 37.4298 10 35.4685C10.4881 35.532 10.9787 35.5638 11.4706 35.5651C14.2526 35.5677 16.9552 34.558 19.1439 32.6986C16.5 32.6443 14.1817 30.7796 13.3718 28.0574C14.2979 28.2506 15.2522 28.2109 16.1612 27.9422C13.2788 27.3123 11.2051 24.5728 11.2051 21.3913C11.2051 21.3622 11.2051 21.3344 11.2051 21.3066C12.0639 21.8241 13.0255 22.1112 14.0092 22.143C11.2944 20.1804 10.4576 16.2737 12.0969 13.2192C15.2338 17.3946 19.862 19.9329 24.8303 20.2016C24.3324 17.8803 25.0126 15.4478 26.6178 13.8161C29.1062 11.2857 33.0199 11.4154 35.3591 14.1059C36.7428 13.8108 38.069 13.2616 39.2826 12.4834C38.8214 14.0305 37.8561 15.3446 36.5666 16.1797C37.7913 16.0235 38.9878 15.6689 40.1146 15.1276C39.2851 16.4722 38.2403 17.6434 37.0315 18.5896Z" fill="#C6EBE0"/>
</svg>
