<svg width="40" height="40" viewBox="0 0 40 40" fill="none" xmlns="http://www.w3.org/2000/svg">
<path d="M4.2425 32.7273H9.69704V38.1818C9.69704 39.1859 10.5111 40 11.5152 40H35.7576C36.7618 40 37.5758 39.1859 37.5758 38.1818V9.09091C37.5758 8.08679 36.7618 7.27273 35.7576 7.27273H30.3031V1.81818C30.3031 0.814061 29.489 0 28.4849 0H4.2425C3.23838 0 2.42432 0.814061 2.42432 1.81818V30.9091C2.42432 31.9132 3.23838 32.7273 4.2425 32.7273ZM33.9395 36.3636H13.3334V10.9091H33.9395V36.3636ZM6.06068 3.63636H26.6667V7.27273H11.5152C10.5111 7.27273 9.69704 8.08679 9.69704 9.09091V29.0909H6.06068V3.63636Z" fill="white"/>
<path d="M18.7879 14.5454C17.7838 14.5454 16.9697 15.3595 16.9697 16.3636C16.9697 17.3677 17.7838 18.1818 18.7879 18.1818H28.4849C29.489 18.1818 30.3031 17.3677 30.3031 16.3636C30.3031 15.3595 29.489 14.5454 28.4849 14.5454H18.7879Z" fill="white"/>
<path d="M28.4849 21.8182H18.7879C17.7838 21.8182 16.9697 22.6323 16.9697 23.6364C16.9697 24.6405 17.7838 25.4546 18.7879 25.4546H28.4849C29.489 25.4546 30.3031 24.6405 30.3031 23.6364C30.3031 22.6323 29.489 21.8182 28.4849 21.8182Z" fill="white"/>
<path d="M28.4849 29.0909H18.7879C17.7838 29.0909 16.9697 29.905 16.9697 30.9091C16.9697 31.9132 17.7838 32.7273 18.7879 32.7273H28.4849C29.489 32.7273 30.3031 31.9132 30.3031 30.9091C30.3031 29.905 29.489 29.0909 28.4849 29.0909Z" fill="white"/>
</svg>
