<svg width="63" height="144" viewBox="0 0 63 144" fill="none" xmlns="http://www.w3.org/2000/svg">
<rect y="108" width="9" height="18" fill="#587D57"/>
<rect x="9" y="108" width="18" height="18" fill="#60895A"/>
<rect y="18" width="9" height="18" fill="#88BB83"/>
<rect y="36" width="9" height="18" fill="#6A9C66"/>
<rect x="9" y="90" width="18" height="18" fill="#95BE7F"/>
<rect x="27" y="90" width="18" height="18" fill="#88BB85"/>
<rect x="45" y="90" width="18" height="18" fill="#C6DB91"/>
<rect x="27" y="72" width="18" height="18" fill="#C6DB91"/>
<rect x="27" y="54" width="18" height="18" fill="#96BE7D"/>
<rect x="9" y="36" width="18" height="18" fill="#C6DB90"/>
<rect x="9" y="18" width="18" height="18" fill="#C6DB90"/>
<rect x="27" y="108" width="18" height="18" fill="#95BE7F"/>
<rect x="45" y="108" width="18" height="18" fill="#8ABA81"/>
<rect y="126" width="9" height="18" fill="#554B47"/>
<rect y="54" width="9" height="36" fill="#95BE7F"/>
<rect x="9" y="54" width="18" height="36" fill="#88BC82"/>
<rect y="90" width="9" height="18" fill="#88BB83"/>
<rect width="9" height="18" fill="#6A9C66"/>
</svg>
