<svg width="126" height="144" viewBox="0 0 126 144" fill="none" xmlns="http://www.w3.org/2000/svg">
<rect x="63" y="108" width="9" height="18" fill="#587D57"/>
<rect x="72" y="108" width="18" height="18" fill="#60895A"/>
<rect x="63" y="18" width="9" height="18" fill="#88BB83"/>
<rect x="63" y="36" width="9" height="18" fill="#6A9C66"/>
<rect x="72" y="90" width="18" height="18" fill="#95BE7F"/>
<rect x="90" y="90" width="18" height="18" fill="#88BB85"/>
<rect x="108" y="90" width="18" height="18" fill="#C6DB91"/>
<rect x="90" y="72" width="18" height="18" fill="#C6DB91"/>
<rect x="90" y="54" width="18" height="18" fill="#96BE7D"/>
<rect x="72" y="36" width="18" height="18" fill="#C6DB90"/>
<rect x="72" y="18" width="18" height="18" fill="#C6DB90"/>
<rect x="90" y="108" width="18" height="18" fill="#95BE7F"/>
<rect x="108" y="108" width="18" height="18" fill="#8ABA81"/>
<rect x="63" y="126" width="9" height="18" fill="#554B47"/>
<rect x="63" y="54" width="9" height="36" fill="#95BE7F"/>
<rect x="72" y="54" width="18" height="36" fill="#88BC82"/>
<rect x="63" y="90" width="9" height="18" fill="#88BB83"/>
<rect x="63" width="9" height="18" fill="#6A9C66"/>
</svg>
