<svg width="468" height="468" viewBox="0 0 468 468" fill="none" xmlns="http://www.w3.org/2000/svg">
<rect x="234" y="360" width="18" height="18" fill="#F8E44E"/>
<rect x="144" y="378" width="18" height="18" fill="#FAED64"/>
<rect x="126" y="378" width="18" height="18" fill="#FAED64"/>
<rect x="108" y="378" width="18" height="18" fill="#FAED64"/>
<rect x="144" y="396" width="18" height="18" fill="#FAED64"/>
<rect x="216" y="414" width="18" height="18" fill="#FAED64"/>
<rect x="252" y="414" width="18" height="18" fill="#FAED64"/>
<rect x="234" y="378" width="18" height="54" fill="#FAED64"/>
<rect x="198" y="414" width="18" height="18" fill="#FAED64"/>
<rect x="180" y="414" width="18" height="18" fill="#FAED64"/>
<rect x="162" y="396" width="72" height="18" fill="#FAED64"/>
<rect x="162" y="378" width="72" height="18" fill="#FAED64"/>
<rect x="270" y="342" width="18" height="18" fill="#F8E44E"/>
<rect x="360" y="396" width="18" height="18" fill="#F8E44E"/>
<rect x="270" y="360" width="18" height="18" fill="#FCF184"/>
<rect x="252" y="360" width="18" height="54" fill="#FCF184"/>
<rect x="270" y="378" width="18" height="36" fill="#FCF184"/>
<rect x="288" y="342" width="18" height="54" fill="#FCF184"/>
<rect x="306" y="324" width="18" height="72" fill="#FCF184"/>
<rect x="414" y="198" width="18" height="18" fill="#FEF3C5"/>
<rect x="342" y="324" width="18" height="36" fill="#FEF3C5"/>
<rect x="360" y="324" width="18" height="36" fill="#FEF3C5"/>
<rect x="360" y="288" width="18" height="36" fill="#FEF3C5"/>
<rect x="378" y="252" width="18" height="54" fill="#FEF3C5"/>
<rect x="396" y="216" width="18" height="54" fill="#FEF3C5"/>
<rect x="396" y="270" width="18" height="36" fill="#FEF3C5"/>
<rect x="378" y="306" width="18" height="36" fill="#FEF3C5"/>
<rect x="378" y="198" width="18" height="54" fill="#FEF3C5"/>
<rect x="378" y="144" width="18" height="54" fill="#FEF3C5"/>
<rect x="378" y="90" width="18" height="54" fill="#FEF3C5"/>
<rect x="396" y="144" width="18" height="54" fill="#FEF3C5"/>
<rect x="414" y="252" width="18" height="18" fill="#FEF3C5"/>
<rect x="360" y="72" width="18" height="18" fill="#FEF3C5"/>
<rect x="342" y="54" width="18" height="18" fill="#FEF3C5"/>
<rect x="414" y="234" width="18" height="18" fill="#FEF3C5"/>
<rect x="414" y="180" width="18" height="18" fill="#FEF3C5"/>
<rect x="396" y="198" width="18" height="18" fill="#FEF3C5"/>
<rect x="360" y="270" width="18" height="115" fill="#FEF3C5"/>
<rect x="342" y="360" width="18" height="18" fill="#FEF3C5"/>
<rect x="342" y="306" width="18" height="18" fill="#FCF2A2"/>
<rect x="342" y="288" width="18" height="18" fill="#FCF2A2"/>
<rect x="324" y="306" width="18" height="18" fill="#FCF2A2"/>
<rect x="324" y="306" width="18" height="18" fill="#FCF2A2"/>
<rect x="306" y="306" width="18" height="18" fill="#FCF2A2"/>
<rect x="360" y="252" width="18" height="18" fill="#FCF2A2"/>
<rect x="414" y="216" width="18" height="18" fill="#FCF2A2"/>
<rect x="324" y="288" width="18" height="18" fill="#FCF2A2"/>
<rect x="324" y="288" width="18" height="18" fill="#FCF2A2"/>
<rect x="342" y="270" width="18" height="18" fill="#FCF2A2"/>
<rect x="324" y="324" width="18" height="54" fill="#FEF3C5"/>
<rect x="288" y="324" width="18" height="18" fill="#F8E44E"/>
<rect x="234" y="342" width="18" height="18" fill="#F3D842"/>
<rect x="216" y="360" width="18" height="18" fill="#F3D842"/>
<rect x="198" y="360" width="18" height="18" fill="#F3D842"/>
<rect x="180" y="360" width="18" height="18" fill="#F3D842"/>
<rect x="162" y="360" width="18" height="18" fill="#F3D842"/>
<rect x="144" y="360" width="18" height="18" fill="#F3D842"/>
<rect x="126" y="360" width="18" height="18" fill="#F3D842"/>
<rect x="108" y="360" width="18" height="18" fill="#F3D842"/>
<rect x="90" y="342" width="18" height="18" fill="#F3D842"/>
<rect x="90" y="360" width="18" height="18" fill="#F3D842"/>
<rect x="90" y="378" width="18" height="18" fill="#F3D842"/>
<rect x="90" y="396" width="54" height="18" fill="#F3D842"/>
<rect x="126" y="414" width="54" height="18" fill="#F3D842"/>
<rect x="180" y="432" width="90" height="18" fill="#F3D842"/>
<rect x="270" y="414" width="54" height="18" fill="#F3D842"/>
<rect x="288" y="396" width="36" height="18" fill="#F3D842"/>
<rect x="288" y="396" width="36" height="18" fill="#F3D842"/>
<rect x="324" y="396" width="36" height="18" fill="#F3D842"/>
<rect x="324" y="378" width="72" height="18" fill="#F3D842"/>
<rect x="360" y="360" width="54" height="18" fill="#F3D842"/>
<rect x="378" y="342" width="36" height="18" fill="#F3D842"/>
<rect x="396" y="306" width="18" height="36" fill="#F3D842"/>
<rect x="414" y="270" width="18" height="63" fill="#F3D842"/>
<rect x="432" y="180" width="18" height="90" fill="#F3D842"/>
<rect x="414" y="144" width="18" height="36" fill="#F3D842"/>
<rect x="396" y="90" width="18" height="54" fill="#F3D842"/>
<rect x="378" y="72" width="18" height="18" fill="#F3D842"/>
<rect x="360" y="54" width="18" height="18" fill="#F3D842"/>
<rect x="324" y="54" width="18" height="18" fill="#F3D842"/>
<rect x="306" y="36" width="18" height="18" fill="#F3D842"/>
<rect x="306" y="18" width="18" height="18" fill="#F3D842"/>
<rect x="288" y="18" width="18" height="18" fill="#F3D842"/>
<rect x="342" y="234" width="18" height="36" fill="#F3D842"/>
<rect x="324" y="270" width="18" height="18" fill="#F3D842"/>
<rect x="306" y="290" width="18" height="18" fill="#F3D842"/>
<rect x="288" y="290" width="18" height="18" fill="#F3D842"/>
<rect x="288" y="308" width="18" height="18" fill="#F3D842"/>
<rect x="324" y="36" width="36" height="18" fill="#F3D842"/>
<rect x="342" y="72" width="18" height="36" fill="#F3D842"/>
<rect x="360" y="90" width="18" height="162" fill="#F3D842"/>
<rect x="72" y="378" width="18" height="18" fill="#F3D842"/>
<rect x="54" y="360" width="18" height="18" fill="#F3D842"/>
<rect x="72" y="360" width="18" height="18" fill="#F3D842"/>
<rect x="54" y="342" width="18" height="18" fill="#F3D842"/>
<rect x="72" y="342" width="18" height="18" fill="#F3D842"/>
<rect x="72" y="342" width="18" height="18" fill="#F3D842"/>
<rect x="54" y="324" width="18" height="18" fill="#F3D842"/>
<rect x="36" y="324" width="18" height="18" fill="#F3D846"/>
<rect x="36" y="306" width="18" height="18" fill="#F3D846"/>
<rect x="36" y="290" width="18" height="18" fill="#F3D846"/>
<rect x="18" y="290" width="18" height="18" fill="#F3D846"/>
<rect x="18" y="306" width="18" height="18" fill="#F3D846"/>
<rect x="36" y="342" width="18" height="18" fill="#F3D846"/>
<rect x="252" y="342" width="18" height="18" fill="#F3D842"/>
<rect x="234" y="324" width="36" height="18" fill="#EE9328"/>
<rect x="288" y="272" width="36" height="18" fill="#EE9328"/>
<rect x="108" y="342" width="126" height="18" fill="#EE9328"/>
<rect x="72" y="324" width="36" height="18" fill="#EE9328"/>
<rect x="54" y="306" width="18" height="18" fill="#EE9328"/>
<rect x="54" y="290" width="18" height="18" fill="#EE9328"/>
<rect x="18" y="254" width="18" height="18" fill="#EE9328"/>
<rect x="18" y="272" width="36" height="18" fill="#EE9328"/>
<rect y="288" width="18" height="36" fill="#EE9328"/>
<rect x="18" y="324" width="18" height="36" fill="#EE9328"/>
<rect y="236" width="18" height="52" fill="#EE9328"/>
<rect x="270" y="324" width="18" height="18" fill="#F3D842"/>
<rect x="36" y="360" width="18" height="18" fill="#EE9328"/>
<rect x="54" y="378" width="18" height="18" fill="#EE9328"/>
<rect x="72" y="396" width="18" height="18" fill="#EE9328"/>
<rect x="90" y="414" width="36" height="18" fill="#EE9328"/>
<rect x="126" y="432" width="54" height="18" fill="#EE9328"/>
<rect x="180" y="450" width="90" height="18" fill="#EE9328"/>
<rect x="270" y="432" width="54" height="18" fill="#EE9328"/>
<rect x="324" y="414" width="54" height="18" fill="#EE9328"/>
<rect x="378" y="396" width="18" height="18" fill="#EE9328"/>
<rect x="396" y="378" width="18" height="18" fill="#EE9328"/>
<rect x="324" y="234" width="18" height="36" fill="#EE9328"/>
<rect x="270" y="290" width="18" height="34" fill="#EE9328"/>
<rect x="324" y="72" width="18" height="36" fill="#EE9328"/>
<rect x="306" y="54" width="18" height="18" fill="#EE9328"/>
<rect x="288" y="36" width="18" height="18" fill="#EE9328"/>
<rect x="270" y="18" width="18" height="18" fill="#EE9328"/>
<rect x="360" y="36" width="18" height="18" fill="#EE9328"/>
<rect x="378" y="54" width="18" height="18" fill="#EE9328"/>
<rect x="396" y="72" width="18" height="18" fill="#EE9328"/>
<rect x="324" y="18" width="36" height="18" fill="#EE9328"/>
<rect x="252" width="72" height="18" fill="#EE9328"/>
<rect x="414" y="333" width="18" height="45" fill="#EE9328"/>
<rect x="432" y="144" width="18" height="36" fill="#EE9328"/>
<rect x="414" y="90" width="18" height="54" fill="#EE9328"/>
<rect x="342" y="108" width="18" height="126" fill="#EE9328"/>
<rect x="432" y="270" width="18" height="63" fill="#EE9328"/>
<path d="M450 180H468V270H450V180Z" fill="#EE9328"/>
</svg>
