<svg width="410" height="511" viewBox="0 0 410 511" fill="none" xmlns="http://www.w3.org/2000/svg">
<rect x="16.0216" y="367.034" width="380.143" height="112.15" fill="white"/>
<path d="M37.9384 471.069L38.5682 471.489H39.3252H377.231C378.301 471.489 379.601 471.236 380.715 470.679C381.741 470.166 383.372 468.968 383.372 466.804C383.372 465.945 383.245 464.335 383.079 462.338C383.043 461.905 383.004 461.447 382.964 460.967C382.812 459.163 382.633 457.039 382.454 454.668C382.001 448.665 381.551 441.134 381.551 433.487C381.551 425.819 382.005 418.14 383.32 411.807C384.666 405.322 386.788 400.901 389.588 398.941L389.834 398.769L390.032 398.543L406.773 379.493V466.804C406.773 475.793 405.485 481.194 402.454 484.756C399.445 488.291 394.268 490.54 385.049 491.978H39.6186C16.5327 486.418 6.8007 468.162 2.5 454.054V40.8712C3.58832 25.7653 6.63427 16.3623 12.1708 10.663C17.299 5.38398 25.0115 2.83779 36.8252 2.53156V405.935C14.7795 425.196 17.0295 457.13 37.9384 471.069Z" fill="#F4BAD7" stroke="black" stroke-width="5"/>
<path d="M41.8253 2.5H381.273C395.357 2.5 406.773 13.9167 406.773 28V387.088C406.773 396.753 398.938 404.588 389.273 404.588H41.8253V2.5Z" fill="#F4BAD7" stroke="black" stroke-width="5"/>
<path d="M36.5007 413.643H370.506C375.588 413.643 375.588 420.926 370.506 420.926H36.5007C32.8703 420.198 32.1442 414.372 36.5007 413.643Z" fill="#010101"/>
<path d="M31.8965 428.207H371.268C375.774 428.207 375.774 435.489 371.268 435.489H31.8965C27.6734 434.761 27.6734 428.935 31.8965 428.207Z" fill="#010101"/>
<path d="M32.2973 442.772H371.669C375.774 443.5 375.774 449.326 371.669 450.055H32.2973C28.0742 449.326 28.0743 443.5 32.2973 442.772Z" fill="#010101"/>
<path d="M36.6228 457.336H371.281C375.33 458.064 375.33 463.89 371.281 464.618H36.6228C32.4583 463.89 32.4584 458.064 36.6228 457.336Z" fill="#010101"/>
<path d="M75.6801 498.963L75.0092 498.628L74.3384 498.963L57.5513 507.357L56.8614 436.991H93.1863L93.8763 508.061L75.6801 498.963Z" fill="#DAB5EA" stroke="black" stroke-width="3"/>
<mask id="path-9-inside-1_3137_2859" fill="white">
<path d="M166.656 161.827C183.919 145.427 207.559 154.371 224.055 176.587C241.094 153.157 259.67 148.291 275.713 156.907C319.992 180.686 296.213 242.184 224.055 283.183C154.356 242.184 134.034 192.817 166.656 161.827Z"/>
</mask>
<path d="M166.656 161.827C183.919 145.427 207.559 154.371 224.055 176.587C241.094 153.157 259.67 148.291 275.713 156.907C319.992 180.686 296.213 242.184 224.055 283.183C154.356 242.184 134.034 192.817 166.656 161.827Z" fill="white"/>
<path d="M166.656 161.827L170.1 165.452L170.1 165.452L166.656 161.827ZM275.713 156.907L273.348 161.312L275.713 156.907ZM224.055 283.183L221.52 287.493L224.012 288.959L226.525 287.531L224.055 283.183ZM224.055 176.587L220.041 179.568L224.097 185.031L228.099 179.528L224.055 176.587ZM273.348 161.312C283.4 166.71 289.228 174.013 291.672 182.316C294.145 190.715 293.324 200.732 288.908 211.724C280.04 233.797 257.067 258.676 221.585 278.836L226.525 287.531C263.201 266.692 288.196 240.322 298.187 215.452C303.201 202.971 304.533 190.593 301.265 179.492C297.969 168.295 290.166 158.993 278.079 152.502L273.348 161.312ZM226.59 278.874C192.182 258.634 170.653 236.706 161.536 216.68C157.006 206.73 155.593 197.38 156.994 188.914C158.39 180.478 162.641 172.537 170.1 165.452L163.212 158.202C154.36 166.612 148.918 176.463 147.128 187.281C145.343 198.068 147.249 209.433 152.435 220.824C162.748 243.479 186.229 266.734 221.52 287.493L226.59 278.874ZM170.1 165.452C177.369 158.546 185.723 157.034 194.239 159.525C203.02 162.093 212.223 169.04 220.041 179.568L228.069 173.606C219.391 161.918 208.526 153.285 197.047 149.927C185.303 146.492 173.206 148.708 163.212 158.202L170.1 165.452ZM228.099 179.528C236.242 168.33 244.392 162.076 251.907 159.45C259.276 156.874 266.478 157.623 273.348 161.312L278.079 152.502C268.905 147.575 258.797 146.449 248.608 150.01C238.564 153.52 228.907 161.414 220.011 173.646L228.099 179.528Z" fill="black" mask="url(#path-9-inside-1_3137_2859)"/>
</svg>
