<svg width="528" height="484" viewBox="0 0 528 484" fill="none" xmlns="http://www.w3.org/2000/svg">
<rect width="528" height="484" fill="#83FFE9"/>
<rect y="198" width="528" height="286" fill="#00870D"/>
<path d="M65.5 176H176L154 242H88L65.5 176Z" fill="#F4B9BB"/>
<path d="M176 176L242 242H154L176 176Z" fill="#D47887"/>
<path d="M66 176V198H44V219.5H22V242H88L66 176Z" fill="#D47887"/>
<rect x="88" y="154" width="66" height="22" fill="#ECA1AF"/>
<path d="M88.0006 132H154.001L176 154H66L88.0006 132Z" fill="#C84477"/>
<path d="M110 88H132.5L154 110H88L110 88Z" fill="#C84477"/>
<rect x="88" y="110" width="66" height="22" fill="#ECA1AF"/>
<rect x="110" y="154" width="22" height="22" fill="#9C3E65"/>
<path d="M120 44.5459L142 54.5459L120 66.5459V44.5459Z" fill="#CE3C61"/>
<rect x="110" y="66" width="22" height="22" fill="#DF4D88"/>
<path d="M110 176H132V198H110V220H88L110 176Z" fill="#F6D9E2"/>
<rect x="176" y="220" width="22" height="22" fill="#B34762"/>
<rect x="43" y="220" width="22" height="22" fill="#B34762"/>
<rect x="88" y="220" width="22" height="22" fill="#F6C9D6"/>
<path d="M88 110H110V132H88V110Z" fill="#E9655E"/>
<path d="M132.5 110H154.5V132H132.5V110Z" fill="#E9655E"/>
<path d="M66 352H154L242.5 462H154L66 352Z" fill="#083800"/>
<path d="M66 308H154V352H66V308Z" fill="#880800"/>
<path d="M44 286L66 308V352L44 330V286Z" fill="#230D00"/>
<path d="M132 352H143L231 462H220L132 352Z" fill="#4EDD1C"/>
<path d="M132 352H143L231 462H220L132 352Z" fill="#4EDD1C"/>
<path d="M110 352H121L209 462H198L110 352Z" fill="#4EDD1C"/>
<path d="M110 352H121L209 462H198L110 352Z" fill="#4EDD1C"/>
<path d="M88 352H99L187 462H176L88 352Z" fill="#4EDD1C"/>
<path d="M88 352H99L187 462H176L88 352Z" fill="#4EDD1C"/>
<path d="M66 352H77L165 462H154L66 352Z" fill="#4EDD1C"/>
<path d="M66 352H77L165 462H154L66 352Z" fill="#4EDD1C"/>
<rect x="110" y="330" width="22" height="22" fill="black"/>
<path d="M198 352H286L374.5 462H286L198 352Z" fill="#083800"/>
<path d="M198 308H286V352H198V308Z" fill="#880800"/>
<path d="M176 286L198 308V352L176 330V286Z" fill="#230D00"/>
<path d="M264 352H275L363 462H352L264 352Z" fill="#4EDD1C"/>
<path d="M264 352H275L363 462H352L264 352Z" fill="#4EDD1C"/>
<path d="M242 352H253L341 462H330L242 352Z" fill="#4EDD1C"/>
<path d="M242 352H253L341 462H330L242 352Z" fill="#4EDD1C"/>
<path d="M220 352H231L319 462H308L220 352Z" fill="#4EDD1C"/>
<path d="M220 352H231L319 462H308L220 352Z" fill="#4EDD1C"/>
<path d="M198 352H209L297 462H286L198 352Z" fill="#4EDD1C"/>
<path d="M198 352H209L297 462H286L198 352Z" fill="#4EDD1C"/>
<rect x="242" y="330" width="22" height="22" fill="black"/>
<path d="M44 286L88 264L110 286L66 308L44 286Z" fill="#040000"/>
<path d="M123 286L88 264L110 286L154 308L123 286Z" fill="#040000"/>
<path d="M110 286L154 308H66L110 286Z" fill="#880800"/>
<path d="M176 286L220 264L242 286L198 308L176 286Z" fill="#040000"/>
<path d="M255.5 286L220 264L242 286L286 308L255.5 286Z" fill="#040000"/>
<path d="M242 286L286 308H198L242 286Z" fill="#880800"/>
<path d="M330 352H418L506.5 462H418L330 352Z" fill="#083800"/>
<path d="M330 308H418V352H330V308Z" fill="#880800"/>
<path d="M308 286L330 308V352L308 330V286Z" fill="#230D00"/>
<path d="M396 352H407L495 462H484L396 352Z" fill="#4EDD1C"/>
<path d="M396 352H407L495 462H484L396 352Z" fill="#4EDD1C"/>
<path d="M374 352H385L473 462H462L374 352Z" fill="#4EDD1C"/>
<path d="M374 352H385L473 462H462L374 352Z" fill="#4EDD1C"/>
<path d="M352 352H363L451 462H440L352 352Z" fill="#4EDD1C"/>
<path d="M352 352H363L451 462H440L352 352Z" fill="#4EDD1C"/>
<path d="M330 352H341L429 462H418L330 352Z" fill="#4EDD1C"/>
<path d="M330 352H341L429 462H418L330 352Z" fill="#4EDD1C"/>
<rect x="374" y="330" width="22" height="22" fill="black"/>
<path d="M308 286L352 264L374 286L330 308L308 286Z" fill="#040000"/>
<path d="M387 286L352 264L374 286L418 308L387 286Z" fill="#040000"/>
<path d="M374 286L418 308H330L374 286Z" fill="#880800"/>
<path d="M440 220H484V242H440V220Z" fill="#F4B9BB"/>
<path d="M462 209L484 220H440L462 209Z" fill="#C84477"/>
<path d="M374 220H418V242H374V220Z" fill="#F4B9BB"/>
<path d="M396 207L418 220H374L396 207Z" fill="#C84477"/>
</svg>
