<svg width="48" height="48" viewBox="0 0 48 48" fill="none" xmlns="http://www.w3.org/2000/svg">
<rect width="48" height="48" rx="24" fill="#C6EBE0"/>
<path d="M34.6995 13.9928C32.6892 13.0704 30.5336 12.3908 28.2797 12.0016C28.2387 11.9941 28.1977 12.0129 28.1765 12.0504C27.8993 12.5435 27.5922 13.1868 27.3772 13.6924C24.953 13.3295 22.5412 13.3295 20.1668 13.6924C19.9517 13.1756 19.6334 12.5435 19.3549 12.0504C19.3338 12.0141 19.2928 11.9954 19.2518 12.0016C16.9991 12.3896 14.8435 13.0692 12.832 13.9928C12.8146 14.0003 12.7997 14.0128 12.7898 14.0291C8.70095 20.1377 7.58085 26.0962 8.13034 31.9808C8.13282 32.0095 8.14898 32.0371 8.17136 32.0546C10.869 34.0357 13.4822 35.2384 16.0469 36.0356C16.0879 36.0481 16.1314 36.0331 16.1575 35.9993C16.7642 35.1709 17.305 34.2973 17.7686 33.3787C17.796 33.3249 17.7699 33.261 17.714 33.2398C16.8562 32.9144 16.0394 32.5176 15.2537 32.0671C15.1916 32.0308 15.1866 31.9419 15.2438 31.8994C15.4091 31.7755 15.5745 31.6466 15.7324 31.5164C15.7609 31.4926 15.8007 31.4876 15.8343 31.5026C20.9959 33.8593 26.584 33.8593 31.6847 31.5026C31.7183 31.4864 31.7581 31.4914 31.7879 31.5152C31.9458 31.6453 32.1112 31.7755 32.2778 31.8994C32.3349 31.9419 32.3312 32.0308 32.2691 32.0671C31.4834 32.5264 30.6666 32.9144 29.8076 33.2385C29.7516 33.2598 29.7268 33.3249 29.7541 33.3787C30.2277 34.296 30.7685 35.1696 31.364 35.9981C31.3889 36.0331 31.4336 36.0481 31.4747 36.0356C34.0517 35.2384 36.6649 34.0357 39.3626 32.0546C39.3862 32.0371 39.4011 32.0108 39.4036 31.982C40.0612 25.1788 38.3021 19.2692 34.7405 14.0303C34.7317 14.0128 34.7169 14.0003 34.6995 13.9928ZM18.5395 28.3977C16.9854 28.3977 15.705 26.971 15.705 25.2188C15.705 23.4667 16.9606 22.04 18.5395 22.04C20.1307 22.04 21.3987 23.4792 21.3739 25.2188C21.3739 26.971 20.1182 28.3977 18.5395 28.3977ZM29.0194 28.3977C27.4654 28.3977 26.185 26.971 26.185 25.2188C26.185 23.4667 27.4405 22.04 29.0194 22.04C30.6107 22.04 31.8787 23.4792 31.8538 25.2188C31.8538 26.971 30.6107 28.3977 29.0194 28.3977Z" fill="#4D536E"/>
</svg>
