<svg width="50" height="50" viewBox="0 0 50 50" fill="none" xmlns="http://www.w3.org/2000/svg">
<rect width="49.3421" height="50" rx="24.6711" fill="#C6EBE0"/>
<path d="M12.1116 26.6145L12.2271 26.4305L19.1918 15.3899C19.2936 15.2282 19.5329 15.2449 19.6099 15.4205C20.7735 18.0629 21.7774 21.3492 21.3071 23.3951C21.1063 24.2369 20.5562 25.3769 19.9373 26.4305C19.8575 26.5838 19.7695 26.7344 19.6759 26.8793C19.6319 26.9462 19.5577 26.9852 19.4779 26.9852H12.3151C12.1226 26.9852 12.0099 26.7734 12.1116 26.6145Z" fill="#4D536E"/>
<path d="M41.5971 28.1616V29.818C41.5971 29.9131 41.5397 29.9977 41.4563 30.0347C40.9453 30.2566 39.196 31.0703 38.4686 32.0953C36.6123 34.7134 35.1941 38.4569 32.0239 38.4569H18.7982C14.1106 38.4569 10.3121 34.5945 10.3121 29.8286V29.6754C10.3121 29.5486 10.4137 29.4455 10.5389 29.4455H17.9117C18.0577 29.4455 18.1646 29.5829 18.1516 29.7282C18.0994 30.2143 18.1881 30.711 18.4149 31.1628C18.8529 32.0636 19.7602 32.6263 20.7404 32.6263H24.3903V29.7388H20.7821C20.597 29.7388 20.4875 29.5222 20.5945 29.3689C20.6335 29.3082 20.6779 29.2447 20.7248 29.1734C21.0663 28.6821 21.5538 27.9185 22.0388 27.0494C22.3698 26.4629 22.6905 25.8368 22.9486 25.208C23.0008 25.0944 23.0425 24.9782 23.0842 24.8645C23.1546 24.6638 23.2276 24.4762 23.2797 24.2887C23.3318 24.1302 23.3736 23.9637 23.4153 23.8078C23.5378 23.2742 23.59 22.7088 23.59 22.1223C23.59 21.8925 23.5796 21.6521 23.5587 21.4222C23.5483 21.1713 23.517 20.9203 23.4857 20.6693C23.4648 20.4474 23.4257 20.2281 23.384 19.9983C23.3318 19.6628 23.2589 19.3299 23.1754 18.9944L23.1468 18.8676C23.0842 18.6378 23.0321 18.4185 22.959 18.1886C22.7531 17.4674 22.5158 16.7647 22.2656 16.1068C22.1743 15.8453 22.07 15.5943 21.9657 15.3434C21.8119 14.9656 21.6555 14.6221 21.5121 14.2972C21.4391 14.1492 21.3765 14.0145 21.314 13.8771C21.2436 13.7212 21.1706 13.5654 21.0976 13.4174C21.0455 13.3038 20.9855 13.1982 20.9438 13.0925L20.498 12.2577C20.4354 12.1441 20.5397 12.0093 20.6622 12.0437L23.4518 12.8098H23.4596C23.4648 12.8098 23.4701 12.8125 23.4701 12.8125L23.8377 12.9155L24.2417 13.0317L24.3903 13.074V11.3938C24.3903 10.5827 25.0317 9.92493 25.8243 9.92493C26.2205 9.92493 26.5803 10.0887 26.8384 10.3555C27.0965 10.6224 27.2581 10.987 27.2581 11.3938V13.8877L27.5553 13.9722C27.5788 13.9802 27.6023 13.9907 27.6232 14.0066C27.6961 14.062 27.8004 14.144 27.9334 14.2443C28.0377 14.3289 28.1498 14.4319 28.2853 14.5376C28.5539 14.7569 28.8745 15.0396 29.2265 15.3645C29.3203 15.4464 29.4116 15.5309 29.495 15.6155C29.9487 16.0434 30.457 16.5454 30.942 17.1002C31.0775 17.256 31.2105 17.4145 31.3461 17.581C31.4816 17.7501 31.625 17.9165 31.7501 18.083C31.9144 18.3049 32.0916 18.5347 32.2455 18.7751C32.3185 18.8887 32.4019 19.005 32.4723 19.1186C32.6704 19.4224 32.8451 19.7368 33.012 20.0511C33.0824 20.1964 33.1554 20.3549 33.2179 20.5108C33.403 20.9309 33.549 21.3588 33.6429 21.7868C33.6716 21.8793 33.6924 21.9797 33.7029 22.0695V22.0906C33.7341 22.2175 33.7445 22.3522 33.755 22.4896C33.7967 22.9281 33.7758 23.3666 33.682 23.8078C33.6429 23.9954 33.5908 24.1724 33.5282 24.36C33.4656 24.5396 33.403 24.7272 33.3222 24.9042C33.1658 25.2714 32.9807 25.6386 32.7617 25.9821C32.6913 26.1089 32.6079 26.2436 32.5244 26.3704C32.4332 26.5051 32.3394 26.632 32.2559 26.7562C32.1412 26.9147 32.0187 27.0811 31.8935 27.229C31.7814 27.3849 31.6667 27.5408 31.5416 27.6781C31.3669 27.8868 31.2001 28.085 31.0254 28.2752C30.9211 28.3994 30.809 28.5262 30.6942 28.6398C30.5821 28.7666 30.4674 28.8802 30.3632 28.9858C30.1885 29.1629 30.0425 29.3002 29.92 29.4138L29.6332 29.6807C29.5915 29.7176 29.5367 29.7388 29.4794 29.7388H27.2581V32.6263H30.0529C30.6786 32.6263 31.273 32.4018 31.7527 31.9896C31.917 31.8443 32.6339 31.2156 33.4813 30.2672C33.5099 30.2355 33.5464 30.2117 33.5881 30.2011L41.3077 27.9397C41.4511 27.8974 41.5971 28.0084 41.5971 28.1616Z" fill="#4D536E"/>
</svg>
