<svg width="50" height="50" viewBox="0 0 50 50" fill="none" xmlns="http://www.w3.org/2000/svg">
<rect width="50" height="50" rx="25" fill="#C6EBE0"/>
<path d="M38.2967 20.1349C38.3146 20.3939 38.3146 20.6528 38.3146 20.9141C38.3146 28.8763 32.2532 38.0591 21.1696 38.0591V38.0543C17.8955 38.0591 14.6894 37.1212 11.9331 35.3529C12.4092 35.4102 12.8877 35.4388 13.3673 35.44C16.0806 35.4424 18.7164 34.532 20.851 32.8556C18.2725 32.8066 16.0114 31.1254 15.2215 28.671C16.1248 28.8452 17.0555 28.8094 17.942 28.5672C15.1309 27.9993 13.1084 25.5294 13.1084 22.6609C13.1084 22.6347 13.1084 22.6096 13.1084 22.5846C13.946 23.0511 14.8839 23.31 15.8432 23.3387C13.1955 21.5692 12.3794 18.0469 13.9782 15.293C17.0376 19.0575 21.5514 21.346 26.397 21.5882C25.9114 19.4954 26.5748 17.3023 28.1402 15.8311C30.5672 13.5497 34.3842 13.6666 36.6656 16.0924C38.0151 15.8263 39.3085 15.3312 40.4922 14.6296C40.0423 16.0244 39.1009 17.2092 37.8433 17.9621C39.0377 17.8213 40.2046 17.5016 41.3035 17.0136C40.4945 18.2258 39.4756 19.2818 38.2967 20.1349Z" fill="#4D536E"/>
</svg>
