<svg width="157" height="137" viewBox="0 0 157 137" fill="none" xmlns="http://www.w3.org/2000/svg">
<path d="M78.2 136.62L75.44 134.32C16.1 86.02 0 69 0 41.4C0 18.4 18.4 0 41.4 0C60.26 0 70.84 10.58 78.2 18.86C85.56 10.58 96.14 0 115 0C138 0 156.4 18.4 156.4 41.4C156.4 69 140.3 86.02 80.96 134.32L78.2 136.62ZM41.4 9.2C23.46 9.2 9.2 23.46 9.2 41.4C9.2 64.86 23.92 80.5 78.2 124.66C132.48 80.5 147.2 64.86 147.2 41.4C147.2 23.46 132.94 9.2 115 9.2C98.9 9.2 90.16 18.86 83.26 26.68L78.2 32.66L73.14 26.68C66.24 18.86 57.5 9.2 41.4 9.2Z" fill="#E4609E"/>
<path d="M4 43L21 9L47.5 5.5L80 26L98.5 9L125 5.5L144.5 18L150.5 43L140.5 72.5L80 128L21 81.5L4 43Z" fill="#E4609E"/>
<g clip-path="url(#clip0_10508_164)">
<path d="M78.3333 124.9L76.1333 123.067C28.8333 84.5667 16 71 16 49C16 30.6667 30.6667 16 49 16C64.0333 16 72.4667 24.4333 78.3333 31.0333C84.2 24.4333 92.6333 16 107.667 16C126 16 140.667 30.6667 140.667 49C140.667 71 127.833 84.5667 80.5333 123.067L78.3333 124.9ZM49 23.3333C34.7 23.3333 23.3333 34.7 23.3333 49C23.3333 67.7 35.0667 80.1667 78.3333 115.367C121.6 80.1667 133.333 67.7 133.333 49C133.333 34.7 121.967 23.3333 107.667 23.3333C94.8333 23.3333 87.8667 31.0333 82.3667 37.2667L78.3333 42.0333L74.3 37.2667C68.8 31.0333 61.8333 23.3333 49 23.3333Z" fill="#070B22"/>
<path d="M24.9795 31.1531L42.9387 20.4898L60.8978 24.9796L79.9795 36.2041L96.255 22.1735H112.53L128.245 28.3469L136.102 45.7449L133.296 66.5102L117.02 85.5918L78.857 118.143L32.8366 80.5408L19.9285 57.5306L21.6121 44.0612L24.9795 31.1531Z" fill="#070B22"/>
</g>
<defs>
<clipPath id="clip0_10508_164">
<rect width="124.667" height="110" fill="white" transform="translate(16 16)"/>
</clipPath>
</defs>
</svg>
