<svg width="157" height="137" viewBox="0 0 157 137" fill="none" xmlns="http://www.w3.org/2000/svg">
<path d="M78.2 136.62L75.44 134.32C16.1 86.02 0 69 0 41.4C0 18.4 18.4 0 41.4 0C60.26 0 70.84 10.58 78.2 18.86C85.56 10.58 96.14 0 115 0C138 0 156.4 18.4 156.4 41.4C156.4 69 140.3 86.02 80.96 134.32L78.2 136.62ZM41.4 9.2C23.46 9.2 9.2 23.46 9.2 41.4C9.2 64.86 23.92 80.5 78.2 124.66C132.48 80.5 147.2 64.86 147.2 41.4C147.2 23.46 132.94 9.2 115 9.2C98.9 9.2 90.16 18.86 83.26 26.68L78.2 32.66L73.14 26.68C66.24 18.86 57.5 9.2 41.4 9.2Z" fill="#E4609E"/>
<path d="M4 43L21 9L47.5 5.5L80 26L98.5 9L125 5.5L144.5 18L150.5 43L140.5 72.5L80 128L21 81.5L4 43Z" fill="#E4609E"/>
<g clip-path="url(#clip0_10508_164)">
<path d="M78.3333 123.9L76.1333 122.067C28.8333 83.5667 16 70 16 48C16 29.6667 30.6667 15 49 15C64.0333 15 72.4667 23.4333 78.3333 30.0333C84.2 23.4333 92.6333 15 107.667 15C126 15 140.667 29.6667 140.667 48C140.667 70 127.833 83.5667 80.5333 122.067L78.3333 123.9ZM49 22.3333C34.7 22.3333 23.3333 33.7 23.3333 48C23.3333 66.7 35.0667 79.1667 78.3333 114.367C121.6 79.1667 133.333 66.7 133.333 48C133.333 33.7 121.967 22.3333 107.667 22.3333C94.8333 22.3333 87.8667 30.0333 82.3667 36.2667L78.3333 41.0333L74.3 36.2667C68.8 30.0333 61.8333 22.3333 49 22.3333Z" fill="#E4609E"/>
<path d="M24.9795 30.1531L42.9387 19.4898L60.8978 23.9796L79.9795 35.2041L96.255 21.1735H112.53L128.245 27.3469L136.102 44.7449L133.296 65.5102L117.02 84.5918L78.857 117.143L32.8366 79.5408L19.9285 56.5306L21.6121 43.0612L24.9795 30.1531Z" fill="#E4609E"/>
</g>
<defs>
<clipPath id="clip0_10508_164">
<rect width="124.667" height="110" fill="white" transform="translate(16 15)"/>
</clipPath>
</defs>
</svg>
