<svg width="265" height="300" viewBox="0 0 265 300" fill="none" xmlns="http://www.w3.org/2000/svg">
<ellipse cx="132.412" cy="160.553" rx="132.412" ry="139.447" fill="black"/>
<ellipse cx="72.1106" cy="134.422" rx="33.9196" ry="38.4422" fill="white"/>
<ellipse cx="195.226" cy="134.422" rx="33.9196" ry="38.4422" fill="white"/>
<ellipse cx="64.8241" cy="124.121" rx="21.608" ry="21.1055" fill="#85ABCE"/>
<ellipse cx="63.5678" cy="123.116" rx="14.8241" ry="14.0704" fill="black"/>
<ellipse cx="190.955" cy="123.116" rx="21.608" ry="21.1055" fill="#85ABCE"/>
<ellipse cx="189.95" cy="122.613" rx="14.5729" ry="14.0704" fill="black"/>
<path d="M204.271 27.8345C204.271 43.5448 185.896 56.7839 164.455 56.7839C135.4 49.7354 126.633 40.5846 126.633 24.8744C130.14 8.76341 146.77 1.15075 168.212 1.15075C193.51 -0.611391 204.271 12.1243 204.271 27.8345Z" fill="#6C9750"/>
<ellipse cx="133.92" cy="60.0503" rx="91.206" ry="38.9447" fill="#6C9750"/>
<path d="M136.181 28.3341C136.181 43.9028 114.91 55.2764 93.3343 55.2764C64.0977 48.2913 55.2764 42.1565 55.2764 26.5878C58.8049 10.622 75.5393 0.144402 97.1148 0.144402C122.571 -1.60186 136.181 12.7653 136.181 28.3341Z" fill="#6C9750"/>
<ellipse cx="96.7336" cy="27.8894" rx="31.9095" ry="19.8492" fill="#669249"/>
<path d="M121.357 28.1407C118.09 36.1809 107.652 39.7995 92.211 39.4472C76.7702 39.0949 73.1156 35.1759 68.6273 27.0892C74.1206 17.8392 77.6382 16.0804 94.9747 16.0804C115.075 19.3467 118.593 20.1005 121.357 28.1407Z" fill="white"/>
<path d="M43.2166 51.5076L93.2166 72.1106L91.9604 76.3819L91.4578 81.1558L47.2367 59.799L43.9704 58.794L39.1967 61.3066L38.6942 56.7839L43.2166 51.5076Z" fill="#A06649"/>
<path d="M93.2168 72.1106L147.488 79.6482L146.483 86.6834L91.458 81.1558L91.9606 76.3819L93.2168 72.1106Z" fill="#A06649"/>
<path d="M43.9704 58.794L47.2369 59.799L91.458 81.1558L89.9505 86.9347L43.9704 64.5729L39.1967 61.3065L43.9704 58.794Z" fill="#9A4920"/>
<path d="M91.4581 81.1558L109.297 82.9146L146.483 86.6834L146.483 93.2161L89.9505 86.9347L91.4581 81.1558Z" fill="#9A4920"/>
<path d="M201.006 73.8693L212.815 65.3266L215.83 70.3517L201.508 81.9095L201.006 73.8693Z" fill="#A06649"/>
<path d="M212.815 65.3266L220.604 56.7839L223.619 61.809L215.83 70.3517L212.815 65.3266Z" fill="#A06649"/>
<path d="M220.604 56.7839L223.116 51.5075L224.875 56.7839L223.619 61.809L220.604 56.7839Z" fill="#A06649"/>
<path d="M147.488 79.6482L201.068 73.8694L201.508 81.9095L146.483 86.6834L147.488 79.6482Z" fill="#A06649"/>
<path d="M147.488 79.6482L201.068 73.8694L201.508 81.9095L146.483 86.6834L147.488 79.6482Z" fill="#A06649"/>
<path d="M146.483 86.6834L201.508 81.9095V85.4271L146.483 93.2161V86.6834Z" fill="#9A4920"/>
<path d="M201.508 81.9095L215.83 70.3517L216.081 72.1105L201.508 85.4271V81.9095Z" fill="#9A4920"/>
<path d="M215.83 70.3518L223.619 61.8091L223.87 62.5629L216.081 72.1106L215.83 70.3518Z" fill="#9A4920"/>
<path d="M223.619 61.8091L224.875 56.7839L225.126 57.789L223.87 62.5629L223.619 61.8091Z" fill="#9A4920"/>
<ellipse cx="88.4422" cy="27.1357" rx="10.5528" ry="9.54774" fill="black"/>
<ellipse cx="84.9246" cy="21.8593" rx="2.01005" ry="1.75879" fill="white"/>
<circle cx="91.206" cy="24.3719" r="2.76382" fill="white"/>
<circle cx="84.9247" cy="26.6332" r="1.50754" fill="white"/>
<ellipse cx="166.583" cy="27.8894" rx="33.9196" ry="19.8492" fill="#678D4D"/>
<path d="M195.477 28.392C188.191 38.9447 186.432 38.4422 168.09 40.7035C150.251 40.7035 139.196 35.1915 139.196 28.392C145.98 17.588 152.965 16.0804 168.09 16.0804C185.427 18.593 190.955 19.0955 195.477 28.392Z" fill="white"/>
<ellipse cx="161.307" cy="27.6382" rx="10.5528" ry="9.54774" fill="black"/>
<ellipse cx="157.789" cy="22.3618" rx="2.01005" ry="1.75879" fill="white"/>
<circle cx="164.07" cy="24.8744" r="2.76382" fill="white"/>
<circle cx="157.789" cy="27.1357" r="1.50754" fill="white"/>
</svg>
